# xmcd CD database file
#
# Track frame offsets:
#	20115
#	32483
#	46233
#	59487
#	73979
#	90863
#	107180
#	123295
#	137909
#	149743
#	163315
#	174826
#	192247
#	205724
#	238793
#
# Disc length: 3390 seconds
#
# Revision: 0
# Processed by: cddbd v1.5.1PL0 Copyright (c) Steve Scherf et al.
# Submitted via: CDex 1.51
#
DISCID=e90c320f
DTITLE=Les Doigts de l'Homme - Les Doigts de l'Homme
DYEAR=2005
DGENRE=Jazz
TTITLE0=Les Doigts de l'Homme - Stenay vous bien
TTITLE1=Les Doigts de l'Homme - Ce vieux conte Dracula
TTITLE2=Les Doigts de l'Homme - Crise de nerfs
TTITLE3=Les Doigts de l'Homme - 140 C
TTITLE4=Les Doigts de l'Homme - Camping sauvage à Auschwitz
TTITLE5=Les Doigts de l'Homme - Métal Hurlant
TTITLE6=Les Doigts de l'Homme - Faites du bien
TTITLE7=Les Doigts de l'Homme - Rythme futur
TTITLE8=Les Doigts de l'Homme - La valse des rois
TTITLE9=Les Doigts de l'Homme - Être ou avoir
TTITLE10=Les Doigts de l'Homme - Blue Ska
TTITLE11=Les Doigts de l'Homme - Les Doigts dans la Bossa
TTITLE12=Les Doigts de l'Homme - Cuba-Texas
TTITLE13=Les Doigts de l'Homme - Mandarine
TTITLE14=Clip Video
EXTD=YEAR: 2005
EXTT0=
EXTT1=
EXTT2=
EXTT3=
EXTT4=
EXTT5=
EXTT6=
EXTT7=
EXTT8=
EXTT9=
EXTT10=
EXTT11=
EXTT12=
EXTT13=
EXTT14=
PLAYORDER=
